HIERARCHY
ROOT Hips
{
  OFFSET -4.62847 97.2586 358.142
  CHANNELS 6 Xposition Yposition Zposition Zrotation Xrotation Yrotation
  JOINT ToSpine
  {
    OFFSET -0.0105055 1.38907 -7.13956
    CHANNELS 3 Zrotation Xrotation Yrotation
    JOINT Spine
    {
      OFFSET 0.0105055 10 1
      CHANNELS 3 Zrotation Xrotation Yrotation
      JOINT Spine1
      {
        OFFSET 0 12 1.60637
        CHANNELS 3 Zrotation Xrotation Yrotation
        JOINT Neck
        {
          OFFSET 0 27 2.26658
          CHANNELS 3 Zrotation Xrotation Yrotation
          JOINT Head
          {
            OFFSET 0 9 2.12705
            CHANNELS 3 Zrotation Xrotation Yrotation
            End Site
            {
              OFFSET 0 11 2
            }
          }
        }
        JOINT LeftShoulder
        {
          OFFSET 8 19.6109 2.86452
          CHANNELS 3 Zrotation Xrotation Yrotation
          JOINT LeftArm
          {
            OFFSET 12 1 0.681055
            CHANNELS 3 Zrotation Xrotation Yrotation
            JOINT LeftForeArm
            {
              OFFSET 19 0 -1.52608
              CHANNELS 3 Zrotation Xrotation Yrotation
              JOINT LeftHand
              {
                OFFSET 23 0 0
                CHANNELS 3 Zrotation Xrotation Yrotation
                End Site
                {
                  OFFSET 10 0 0
                }
              }
            }
          }
        }
        JOINT RightShoulder
        {
          OFFSET -8 19.6109 2.86452
          CHANNELS 3 Zrotation Xrotation Yrotation
          JOINT RightArm
          {
            OFFSET -12 1 0.681055
            CHANNELS 3 Zrotation Xrotation Yrotation
            JOINT RightForeArm
            {
              OFFSET -19 0 -1.52608
              CHANNELS 3 Zrotation Xrotation Yrotation
              JOINT RightHand
              {
                OFFSET -23 0 0
                CHANNELS 3 Zrotation Xrotation Yrotation
                End Site
                {
                  OFFSET -10 0 0
                }
              }
            }
          }
        }
      }
    }
  }
  JOINT LeftUpLeg
  {
    OFFSET 9 -7.17245 0
    CHANNELS 3 Zrotation Xrotation Yrotation
    JOINT LeftLeg
    {
      OFFSET 0 -44.1113 0
      CHANNELS 3 Zrotation Xrotation Yrotation
      JOINT LeftFoot
      {
        OFFSET 0 -36.1829 0
        CHANNELS 3 Zrotation Xrotation Yrotation
        JOINT LeftToeBase
        {
          OFFSET 0 -4.84184 13
          CHANNELS 3 Zrotation Xrotation Yrotation
          End Site
          {
            OFFSET 0 1 6
          }
        }
      }
    }
  }
  JOINT RightUpLeg
  {
    OFFSET -9 -7.17245 0
    CHANNELS 3 Zrotation Xrotation Yrotation
    JOINT RightLeg
    {
      OFFSET 0 -44.0551 0
      CHANNELS 3 Zrotation Xrotation Yrotation
      JOINT RightFoot
      {
        OFFSET 0 -36.1469 0
        CHANNELS 3 Zrotation Xrotation Yrotation
        JOINT RightToeBase
        {
          OFFSET 0 -4.92256 13
          CHANNELS 3 Zrotation Xrotation Yrotation
          End Site
          {
            OFFSET 0 1 6
          }
        }
      }
    }
  }
}
MOTION
Frames:	15
Frame Time:	0.0333333
-4.6327 97.2517 358.142 0.0579134 -3.561 -3.19988 0 0 0 0.673989 2.09951 2.16735 0.10496 1.90488 1.9855 5.81578 3.09856 -3.10645 -4.64335 4.0969 0.00531957 -32.5041 3.7873 -6.30072 -43.1158 24.3345 -14.9425 -5.85872 -16.8063 -2.62479 -11.8996 0.386331 -3.707 22.3889 4.62769 12.5138 54.1478 14.9607 4.80339 3.76939 -2.99698 9.631 0.150379 0.00713179 5.75731 2.29398 6.40552 8.40131 -1.20592 4.77453 -6.53565 1.84191 -4.99158 0.082651 0.906865 -5.04226 -2.94568 -1.56935 4.09573 -6.70585 -0.883095 4.19213 2.31347 -9.8366 0.61171 0.0529569 3.9982 -15.011 -4.5484 
-4.65534 97.2385 358.139 0.185974 -3.54643 -3.20228 0 0 0 -0.0448986 2.2154 2.26278 0.820083 1.6514 1.92977 5.83672 3.1676 -3.04572 -4.90991 4.36734 0.154764 -32.4374 3.80165 -6.35425 -43.3854 24.5477 -14.7781 -5.98864 -17.0953 -2.82789 -12.1553 0.410071 -3.84931 22.2811 4.63994 12.6195 54.2053 14.8606 4.59992 3.76418 -3.06223 9.62418 -0.41325 -0.0195922 5.81628 2.24184 6.17219 8.50933 -1.24786 5.28078 -6.54846 0.896877 -5.66772 0.0294098 0.84705 -3.56301 -2.7869 -1.74692 4.00571 -6.7439 -0.755469 4.34643 2.60994 -10.5871 0.750491 0.069332 4.10393 -15.5012 -5.07495 
-4.69016 97.2518 358.128 0.266775 -3.50392 -3.23989 0 0 0 0.347827 2.29242 2.02639 -0.196926 1.56292 1.85124 6.78186 3.08505 -3.00047 -5.73212 4.20989 0.702671 -30.9233 3.67564 -6.41889 -44.5313 24.2038 -14.3595 -6.00363 -15.9568 -3.19372 -12.178 0.440307 -4.13401 23.19 4.97943 13.2362 53.5074 14.6963 4.52723 3.47522 -1.93355 9.66486 -1.33027 -0.0592991 5.0524 2.37805 5.71087 8.7184 -1.19801 6.28702 -7.27836 -1.79959 -8.57433 -0.127997 0.118881 3.71104 -1.36086 -1.80395 3.9596 -6.65098 -0.714038 4.2853 2.65481 -10.941 0.767501 0.0738727 4.12491 -15.6141 -5.41354 
-4.71268 97.2308 358.137 0.165952 -3.48999 -3.20129 0 0 0 3.94692 1.93092 1.06523 -5.85768 2.28326 1.96877 9.6599 2.89839 -3.2562 -6.07442 3.69381 1.42787 -26.8794 3.38004 -6.70995 -46.2656 23.4539 -13.7851 -4.92591 -13.2369 -4.24047 -12.464 0.227607 -2.07952 26.8388 6.03223 14.6735 51.2526 14.9017 4.70076 3.82435 -3.20073 9.56878 -1.54041 -0.0706189 5.29923 2.54594 5.70406 8.74578 -1.16873 6.27167 -7.04385 -1.63422 -8.41025 -0.120477 0.60029 2.84046 -2.98725 -1.68477 3.98931 -6.6195 -0.627198 4.2254 2.6284 -11.3297 1.05973 0.105153 4.22417 -16.0729 -5.6184 
-4.74597 97.2466 358.161 0.112396 -3.45376 -3.13049 0 0 0 4.03998 1.73846 1.07879 -5.81216 2.52671 1.9669 9.27622 3.17729 -3.48624 -5.42079 3.45647 0.920612 -26.87 3.41148 -6.80909 -46.5853 22.2363 -13.9978 -4.74131 -12.3702 -3.37194 -12.5016 0.263278 -2.40261 26.7963 5.99625 14.5699 51.1515 15.1075 4.81165 3.96316 -3.52789 9.49903 -0.680197 -0.0389558 5.25377 2.673 5.593 8.85116 -1.15978 6.48096 -7.1942 -2.23835 -8.61779 -0.16856 0.541591 3.30335 -2.83401 -1.59882 3.99693 -6.57951 -0.631479 4.22054 2.47987 -11.0004 0.870884 0.0838271 4.12843 -15.6392 -5.51842 
-4.80526 97.25 358.174 0.192224 -3.4114 -2.94803 0 0 0 3.8625 1.60929 1.108 -5.45418 2.74227 1.93451 8.47972 3.00262 -3.34208 -4.55013 3.52245 0.576718 -27.8902 3.47399 -6.69223 -45.6527 21.9889 -14.4359 -4.53734 -10.8527 -2.92388 -12.562 0.233059 -2.11329 26.5006 5.89866 14.4338 51.3134 14.9544 4.88147 3.85255 -3.17162 9.44417 2.36541 0.0889024 4.80834 2.59292 5.57372 8.72461 -1.06579 6.34673 -7.2686 -2.02728 -8.37876 -0.148551 0.531665 3.10173 -2.76477 -1.59863 3.96603 -6.62914 -0.561473 4.18276 2.10963 -11.5337 1.00775 0.101659 4.20753 -15.9749 -5.34568 
-4.90196 97.266 358.158 0.222357 -3.15266 -2.6699 0 0 0 4.17712 1.04915 1.00327 -5.9483 3.28061 1.94873 8.60987 2.55589 -3.33053 -4.15699 3.88804 0.515387 -27.2337 3.43204 -6.76163 -45.9601 21.7515 -14.6687 -4.55374 -11.3375 -2.85878 -13.0064 0.265753 -2.32492 27.0013 6.00949 14.5024 51.0049 14.7461 4.98242 3.78387 -3.01408 9.45909 -1.0932 -0.0589972 6.86339 2.72254 5.42996 8.73091 -1.19892 5.9811 -7.81283 -1.87924 -8.35637 -0.137561 0.4259 3.37215 -2.41202 -1.5027 3.75687 -6.57734 -0.546113 4.06671 1.92843 -12.0142 1.33955 0.141435 4.28929 -16.3587 -5.60004 
-4.9831 97.2158 358.173 0.207654 -3.37899 -2.61826 0 0 0 3.96797 1.68586 0.838251 -5.85667 2.67036 1.73586 8.79569 2.84531 -3.26332 -4.35015 3.84812 0.705921 -26.3068 3.34017 -6.76515 -47.003 21.7249 -14.1268 -4.60193 -11.7223 -3.38994 -12.5408 0.204844 -1.86177 26.8529 6.07585 14.7744 51.2601 14.6412 4.78081 3.82634 -3.22531 9.34413 -0.609842 -0.0365315 5.94346 2.9207 5.46063 9.0428 -1.35433 6.47665 -7.85079 -2.18273 -8.56039 -0.16381 0.552625 3.51117 -2.90558 -1.39994 4.07186 -6.50716 -0.419085 3.89177 1.70638 -13.2065 1.72403 0.199167 4.49901 -17.3462 -5.97583 
-5.13045 97.2328 358.155 0.26653 -3.38804 -2.34333 0 0 0 3.23303 1.69057 0.987993 -4.35674 2.69937 1.59604 6.888 3.10119 -2.84216 -2.86296 3.83558 0.144649 -28.6107 3.48367 -6.51352 -44.5478 23.1617 -14.4241 -5.06848 -13.191 -3.69798 -13.2455 0.234715 -2.01135 25.6728 5.75012 14.4201 51.7865 14.7138 4.86087 3.84116 -3.22279 9.13096 1.71539 0.0700371 4.51825 3.05402 5.49018 9.16049 -1.54975 6.32081 -8.23759 -1.73037 -8.16636 -0.123608 0.631142 2.7701 -3.09461 -1.33305 4.08243 -6.52446 -0.318831 3.90439 1.56363 -13.9731 2.09283 0.257384 4.61106 -17.9027 -6.30812 
-5.27929 97.1985 358.128 0.245766 -3.48808 -2.12644 0 0 0 3.62024 1.86111 0.990536 -4.82563 2.62253 1.68833 7.28635 3.4581 -3.02192 -3.40363 3.26433 0.237569 -28.6879 3.50679 -6.55891 -44.2967 23.6913 -14.4523 -5.11398 -13.43 -3.88952 -11.8562 0.149839 -1.44994 25.736 5.66652 14.13 51.8314 14.7372 4.7033 3.93257 -3.7122 9.38842 2.63532 0.104045 4.51818 3.39205 5.47495 9.53552 -1.81577 6.59496 -8.65429 -2.29453 -8.63356 -0.173214 0.689035 3.59448 -3.42914 -1.18653 4.18297 -6.49424 -0.149423 3.89482 1.29277 -15.2782 2.44426 0.327415 4.75471 -18.6445 -6.73276 
-5.4912 97.1842 358.07 0.267601 -3.69094 -2.05891 0 0 0 3.99022 2.05292 0.965794 -5.43329 2.80236 1.79953 7.60079 3.60416 -3.14002 -3.61093 2.99806 0.268699 -28.635 3.46553 -6.45691 -44.1942 23.0129 -14.6978 -4.97801 -13.5857 -3.65272 -11.1862 0.135926 -1.38196 26.2006 5.72123 14.0535 51.3304 15.1661 4.81055 4.23647 -4.72683 9.34395 2.39554 0.100483 4.80119 3.66791 5.4394 9.78224 -2.01479 7.07071 -8.83113 -2.31968 -8.92031 -0.180928 0.734457 4.06891 -3.65706 -0.983925 4.39858 -6.319 -0.317826 3.85078 1.06867 -15.2347 2.36351 0.316377 4.75967 -18.7094 -6.93935 
-5.72495 97.1832 357.958 0.305742 -3.77489 -2.36594 0 0 0 3.30017 2.2658 1.14417 -4.36571 2.78937 1.79275 8.57356 4.08546 -3.24906 -6.13148 2.15668 1.09654 -29.7131 3.41489 -6.02283 -43.1042 23.3457 -14.7514 -5.10278 -14.6563 -4.07864 -9.57083 0.0923181 -1.10879 26.0574 5.86903 14.5772 51.1052 14.8849 4.50123 4.0806 -4.31642 9.50426 2.418 0.0997599 4.71112 3.7503 5.32665 9.73672 -1.96359 7.46061 -8.69805 -2.00591 -8.98398 -0.158285 0.775139 3.28275 -3.71086 -0.861159 4.24482 -6.19659 -0.325449 4.07779 1.21897 -15.9432 2.557 0.357957 4.82398 -18.9954 -6.88043 
-5.91522 97.1953 357.823 0.454666 -3.73268 -2.197 0 0 0 3.46545 2.4861 1.209 -4.47919 2.57622 1.88805 6.16627 3.56963 -2.50102 -3.05648 3.55736 0.315051 -30.54 3.43141 -5.85604 -42.333 23.4068 -14.2267 -5.13772 -15.2038 -5.32902 -10.0747 0.0724375 -0.815507 25.5019 5.7487 14.5056 51.3463 15.2063 4.70818 4.15511 -4.21228 9.13096 2.20581 0.0912262 4.87842 3.87448 4.75863 9.81825 -2.01526 8.33947 -8.87795 -2.79345 -9.41892 -0.229887 0.728722 4.12332 -3.64416 -0.940162 4.06326 -6.3488 -0.139856 4.20385 1.0008 -16.1792 2.42365 0.344509 4.8054 -18.8804 -6.74743 
-6.21161 97.2173 357.731 0.640202 -4.06171 -2.28499 0 0 0 4.48781 2.87852 1.38265 -6.18488 2.64426 2.4658 6.79987 3.87139 -3.01632 -3.07137 3.35105 0.0256582 -29.8918 3.44834 -6.06825 -42.7231 22.0287 -14.3206 -4.88003 -15.1217 -4.71091 -9.96946 0.111281 -1.32338 26.2996 5.9197 14.603 51.0924 14.6243 4.3086 3.94209 -3.91041 9.5477 0.708235 0.0358513 5.62023 3.95737 5.09188 9.91556 -2.21638 8.29417 -8.95153 -2.73918 -9.32319 -0.223419 0.705406 4.0353 -3.54715 -0.905814 4.38359 -6.38699 -0.265705 4.12181 1.25476 -16.2077 2.46649 0.352089 4.79317 -18.8522 -6.89352 
-6.52294 97.2014 357.43 0.836047 -4.2356 -1.63116 0 0 0 4.65397 3.73095 1.26207 -6.33666 2.06191 2.4052 6.56312 3.68415 -2.50598 -4.04799 3.65458 0.694009 -30.5514 3.43888 -5.87319 -42.2859 21.6554 -14.0539 -5.2989 -18.7153 -4.53242 -9.10756 0.268866 -3.34926 25.845 5.88239 14.7319 51.5458 14.3539 3.92204 3.76438 -3.78112 10.2743 1.17102 0.0489337 4.81958 4.176 4.47608 9.9273 -2.31054 9.3662 -9.56542 -2.55852 -9.54951 -0.213569 0.750209 4.04483 -3.71452 -0.803503 4.47915 -6.3679 -0.258151 3.99448 0.847291 -17.1816 2.97312 0.448857 4.90366 -19.4673 -7.29957 
